<svg id="visual" viewBox="0 0 960 540" width="960" height="540" xmlns="http://www.w3.org/2000/svg" xmlns:xlink="http://www.w3.org/1999/xlink" version="1.1"><rect x="0" y="0" width="960" height="540" fill="#7E7665"></rect><defs><linearGradient id="grad1_0" x1="43.8%" y1="100%" x2="100%" y2="0%"><stop offset="14.444444444444446%" stop-color="#f1e5cc" stop-opacity="1"></stop><stop offset="85.55555555555554%" stop-color="#f1e5cc" stop-opacity="1"></stop></linearGradient></defs><defs><linearGradient id="grad1_1" x1="43.8%" y1="100%" x2="100%" y2="0%"><stop offset="14.444444444444446%" stop-color="#f1e5cc" stop-opacity="1"></stop><stop offset="85.55555555555554%" stop-color="#d3c8b1" stop-opacity="1"></stop></linearGradient></defs><defs><linearGradient id="grad1_2" x1="43.8%" y1="100%" x2="100%" y2="0%"><stop offset="14.444444444444446%" stop-color="#b6ac97" stop-opacity="1"></stop><stop offset="85.55555555555554%" stop-color="#d3c8b1" stop-opacity="1"></stop></linearGradient></defs><defs><linearGradient id="grad1_3" x1="43.8%" y1="100%" x2="100%" y2="0%"><stop offset="14.444444444444446%" stop-color="#b6ac97" stop-opacity="1"></stop><stop offset="85.55555555555554%" stop-color="#99907d" stop-opacity="1"></stop></linearGradient></defs><defs><linearGradient id="grad1_4" x1="43.8%" y1="100%" x2="100%" y2="0%"><stop offset="14.444444444444446%" stop-color="#7e7665" stop-opacity="1"></stop><stop offset="85.55555555555554%" stop-color="#99907d" stop-opacity="1"></stop></linearGradient></defs><defs><linearGradient id="grad2_0" x1="0%" y1="100%" x2="56.3%" y2="0%"><stop offset="14.444444444444446%" stop-color="#f1e5cc" stop-opacity="1"></stop><stop offset="85.55555555555554%" stop-color="#f1e5cc" stop-opacity="1"></stop></linearGradient></defs><defs><linearGradient id="grad2_1" x1="0%" y1="100%" x2="56.3%" y2="0%"><stop offset="14.444444444444446%" stop-color="#d3c8b1" stop-opacity="1"></stop><stop offset="85.55555555555554%" stop-color="#f1e5cc" stop-opacity="1"></stop></linearGradient></defs><defs><linearGradient id="grad2_2" x1="0%" y1="100%" x2="56.3%" y2="0%"><stop offset="14.444444444444446%" stop-color="#d3c8b1" stop-opacity="1"></stop><stop offset="85.55555555555554%" stop-color="#b6ac97" stop-opacity="1"></stop></linearGradient></defs><defs><linearGradient id="grad2_3" x1="0%" y1="100%" x2="56.3%" y2="0%"><stop offset="14.444444444444446%" stop-color="#99907d" stop-opacity="1"></stop><stop offset="85.55555555555554%" stop-color="#b6ac97" stop-opacity="1"></stop></linearGradient></defs><defs><linearGradient id="grad2_4" x1="0%" y1="100%" x2="56.3%" y2="0%"><stop offset="14.444444444444446%" stop-color="#99907d" stop-opacity="1"></stop><stop offset="85.55555555555554%" stop-color="#7e7665" stop-opacity="1"></stop></linearGradient></defs><g transform="translate(960, 540)"><path d="M-405 0C-381.3 -36.4 -357.6 -72.9 -340.5 -110.6C-323.4 -148.4 -312.9 -187.4 -286.4 -208.1C-259.9 -228.7 -217.4 -231 -191 -262.9C-164.6 -294.9 -154.3 -356.5 -125.2 -385.2C-96 -413.8 -48 -409.4 0 -405L0 0Z" fill="#8c8371"></path><path d="M-324 0C-305 -29.2 -286.1 -58.3 -272.4 -88.5C-258.7 -118.7 -250.3 -149.9 -229.1 -166.5C-207.9 -183 -173.9 -184.8 -152.8 -210.3C-131.7 -235.9 -123.4 -285.2 -100.1 -308.1C-76.8 -331 -38.4 -327.5 0 -324L0 0Z" fill="#a89e8a"></path><path d="M-243 0C-228.8 -21.9 -214.5 -43.7 -204.3 -66.4C-194 -89 -187.7 -112.5 -171.8 -124.8C-155.9 -137.2 -130.5 -138.6 -114.6 -157.8C-98.8 -176.9 -92.6 -213.9 -75.1 -231.1C-57.6 -248.3 -28.8 -245.6 0 -243L0 0Z" fill="#c4baa4"></path><path d="M-162 0C-152.5 -14.6 -143 -29.2 -136.2 -44.3C-129.4 -59.3 -125.2 -75 -114.6 -83.2C-104 -91.5 -87 -92.4 -76.4 -105.2C-65.9 -118 -61.7 -142.6 -50.1 -154.1C-38.4 -165.5 -19.2 -163.8 0 -162L0 0Z" fill="#e2d6be"></path><path d="M-81 0C-76.3 -7.3 -71.5 -14.6 -68.1 -22.1C-64.7 -29.7 -62.6 -37.5 -57.3 -41.6C-52 -45.7 -43.5 -46.2 -38.2 -52.6C-32.9 -59 -30.9 -71.3 -25 -77C-19.2 -82.8 -9.6 -81.9 0 -81L0 0Z" fill="#f1e5cc"></path></g><g transform="translate(0, 0)"><path d="M405 0C413.4 51.3 421.8 102.7 385.2 125.2C348.6 147.6 266.9 141.2 241.1 175.2C215.2 209.1 245.2 283.5 232.2 319.6C219.2 355.7 163.3 353.5 117.4 361.4C71.6 369.3 35.8 387.1 0 405L0 0Z" fill="#8c8371"></path><path d="M324 0C330.7 41.1 337.4 82.2 308.1 100.1C278.9 118.1 213.5 113 192.9 140.1C172.2 167.3 196.1 226.8 185.7 255.6C175.3 284.5 130.6 282.8 93.9 289.1C57.3 295.4 28.6 309.7 0 324L0 0Z" fill="#a89e8a"></path><path d="M243 0C248 30.8 253.1 61.6 231.1 75.1C209.1 88.6 160.2 84.7 144.7 105.1C129.1 125.5 147.1 170.1 139.3 191.7C131.5 213.4 98 212.1 70.5 216.8C42.9 221.6 21.5 232.3 0 243L0 0Z" fill="#c4baa4"></path><path d="M162 0C165.4 20.5 168.7 41.1 154.1 50.1C139.4 59 106.8 56.5 96.4 70.1C86.1 83.6 98.1 113.4 92.9 127.8C87.7 142.3 65.3 141.4 47 144.6C28.6 147.7 14.3 154.9 0 162L0 0Z" fill="#e2d6be"></path><path d="M81 0C82.7 10.3 84.4 20.5 77 25C69.7 29.5 53.4 28.2 48.2 35C43 41.8 49 56.7 46.4 63.9C43.8 71.1 32.7 70.7 23.5 72.3C14.3 73.9 7.2 77.4 0 81L0 0Z" fill="#f1e5cc"></path></g></svg>