<svg xmlns="http://www.w3.org/2000/svg" xmlns:xlink="http://www.w3.org/1999/xlink" version="1.1" x="0px" y="0px" viewBox="0 0 256 256" enable-background="new 0 0 256 256" xml:space="preserve">
<metadata> Svg Vector Icons : http://www.onlinewebfonts.com/icon </metadata>
<g><g><g><path fill="#000000" d="M117.5,10.3C89.9,12.7,64,24.8,44.4,44.4c-18,18-29.3,40.6-33.4,66.3c-1.4,8.6-1.4,25.8,0,34.4c5.2,33.6,23.3,62.1,51.2,80.9c17.1,11.5,35.6,17.9,57.1,19.7c33.2,2.8,67.8-10,92-34.3c39.9-39.9,46-102.5,14.6-149.2c-13.6-20.2-31.9-35-54.3-44C154.9,11.6,135.4,8.7,117.5,10.3z M86,65.1c3.7,1.7,5.4,3.3,7.2,7c4,8.4-0.2,18.3-9.1,20.9c-1.8,0.6-3.7,1-4.3,1s-2.5-0.4-4.3-1c-13.1-3.9-14.5-22-2.2-27.7C77.3,63.5,82.2,63.4,86,65.1z M92.8,149.2v42.8H79.8H66.9v-42.8v-42.8h12.9h12.9V149.2z M135.3,112.6v6.2l3.1-3.5c5.9-6.5,14.9-9.5,26.1-8.8c15.7,1,22.8,7.3,25.6,22.7c0.3,1.8,0.7,16.6,1,33l0.4,29.8h-13.4h-13.3v-26.7c0-27.5-0.2-29.9-2.6-33.3c-2-2.8-4.5-3.8-10.4-3.8c-6.4,0-10.2,1.3-12.9,4.3c-3.2,3.7-3.3,4.7-3.6,33.1l-0.3,26.4h-12.9h-12.9v-42.4c0-23.4,0.2-42.7,0.4-42.8c0.2-0.2,6-0.4,12.9-0.4h12.5V112.6z"/></g></g></g>
</svg>