<svg width="500" height="500" viewBox="0 0 500 500" fill="none" xmlns="http://www.w3.org/2000/svg">
<path fill-rule="evenodd" clip-rule="evenodd" d="M213.549 328.786L213.549 328.787L200.914 316.152C200.971 316.927 201 317.71 201 318.5C201 335.897 186.897 350 169.5 350C152.103 350 138 335.897 138 318.5C138 301.103 152.103 287 169.5 287C170.29 287 171.073 287.029 171.848 287.086L158.863 274.101L158.865 274.098C145.958 260.931 138 242.895 138 223C138 182.683 170.683 150 211 150C230.895 150 248.931 157.958 262.098 170.865L262.1 170.863L262.491 171.253C262.576 171.338 262.662 171.424 262.747 171.51L275.086 183.849C275.029 183.073 275 182.29 275 181.5C275 164.103 289.103 150 306.5 150C323.897 150 338 164.103 338 181.5C338 198.897 323.897 213 306.5 213C305.71 213 304.927 212.971 304.151 212.914L316.492 225.255C316.577 225.339 316.661 225.423 316.745 225.508L316.786 225.549C329.898 238.746 338 256.927 338 277C338 317.317 305.317 350 265 350C244.927 350 226.746 341.898 213.549 328.786Z" fill="black"/>
<mask id="path-2-outside-1_1_2" maskUnits="userSpaceOnUse" x="109" y="204" width="290" height="105" fill="black">
<rect fill="white" x="109" y="204" width="290" height="105"/>
<path d="M143.072 304.28C137.781 304.28 132.875 303.043 128.352 300.568C123.915 298.008 120.331 294.424 117.6 289.816C114.955 285.123 113.632 279.661 113.632 273.432C113.632 264.131 116.235 256.707 121.44 251.16C126.645 245.528 133.685 242.712 142.56 242.712C147.509 242.712 152.032 243.949 156.128 246.424C160.224 248.813 162.997 251.715 164.448 255.128L163.808 245.144V208.92H177.376V303H164.192L163.936 292.632C162.485 295.704 159.84 298.435 156 300.824C152.16 303.128 147.851 304.28 143.072 304.28ZM145.376 292.632C150.24 292.632 154.336 290.968 157.664 287.64C160.992 284.227 162.656 279.789 162.656 274.328V273.432C162.656 269.763 161.888 266.477 160.352 263.576C158.816 260.675 156.725 258.413 154.08 256.792C151.435 255.171 148.533 254.36 145.376 254.36C139.915 254.36 135.691 256.152 132.704 259.736C129.717 263.235 128.224 267.8 128.224 273.432C128.224 279.149 129.675 283.8 132.576 287.384C135.563 290.883 139.829 292.632 145.376 292.632ZM223.105 304.28C217.046 304.28 211.67 302.915 206.977 300.184C202.284 297.453 198.657 293.741 196.097 289.048C193.537 284.355 192.257 279.149 192.257 273.432C192.257 267.8 193.494 262.637 195.969 257.944C198.529 253.251 202.156 249.539 206.849 246.808C211.542 244.077 216.961 242.712 223.105 242.712C229.249 242.712 234.625 244.077 239.233 246.808C243.926 249.539 247.51 253.251 249.985 257.944C252.545 262.637 253.825 267.8 253.825 273.432C253.825 279.149 252.545 284.355 249.985 289.048C247.425 293.741 243.798 297.453 239.105 300.184C234.497 302.915 229.164 304.28 223.105 304.28ZM223.489 293.016C228.438 293.016 232.321 291.181 235.137 287.512C238.038 283.843 239.489 279.235 239.489 273.688C239.489 268.141 237.953 263.491 234.881 259.736C231.809 255.896 227.756 253.976 222.721 253.976C217.857 253.976 213.932 255.853 210.945 259.608C208.044 263.363 206.593 268.056 206.593 273.688C206.593 279.149 208.172 283.757 211.329 287.512C214.486 291.181 218.54 293.016 223.489 293.016ZM268.204 244.248H282.028V255.768C283.393 251.843 285.612 248.685 288.684 246.296C291.756 243.907 295.255 242.712 299.18 242.712C301.911 242.712 303.788 242.968 304.812 243.48L302.892 257.432C302.124 256.92 300.46 256.664 297.9 256.664C293.889 256.664 290.22 257.944 286.892 260.504C283.649 263.064 282.028 267.16 282.028 272.792V303H268.204V244.248ZM303.452 208.92H319.708L347.868 273.56L376.156 208.92H392.284L348.892 303H346.972L303.452 208.92Z"/>
</mask>
<path d="M143.072 304.28C137.781 304.28 132.875 303.043 128.352 300.568C123.915 298.008 120.331 294.424 117.6 289.816C114.955 285.123 113.632 279.661 113.632 273.432C113.632 264.131 116.235 256.707 121.44 251.16C126.645 245.528 133.685 242.712 142.56 242.712C147.509 242.712 152.032 243.949 156.128 246.424C160.224 248.813 162.997 251.715 164.448 255.128L163.808 245.144V208.92H177.376V303H164.192L163.936 292.632C162.485 295.704 159.84 298.435 156 300.824C152.16 303.128 147.851 304.28 143.072 304.28ZM145.376 292.632C150.24 292.632 154.336 290.968 157.664 287.64C160.992 284.227 162.656 279.789 162.656 274.328V273.432C162.656 269.763 161.888 266.477 160.352 263.576C158.816 260.675 156.725 258.413 154.08 256.792C151.435 255.171 148.533 254.36 145.376 254.36C139.915 254.36 135.691 256.152 132.704 259.736C129.717 263.235 128.224 267.8 128.224 273.432C128.224 279.149 129.675 283.8 132.576 287.384C135.563 290.883 139.829 292.632 145.376 292.632ZM223.105 304.28C217.046 304.28 211.67 302.915 206.977 300.184C202.284 297.453 198.657 293.741 196.097 289.048C193.537 284.355 192.257 279.149 192.257 273.432C192.257 267.8 193.494 262.637 195.969 257.944C198.529 253.251 202.156 249.539 206.849 246.808C211.542 244.077 216.961 242.712 223.105 242.712C229.249 242.712 234.625 244.077 239.233 246.808C243.926 249.539 247.51 253.251 249.985 257.944C252.545 262.637 253.825 267.8 253.825 273.432C253.825 279.149 252.545 284.355 249.985 289.048C247.425 293.741 243.798 297.453 239.105 300.184C234.497 302.915 229.164 304.28 223.105 304.28ZM223.489 293.016C228.438 293.016 232.321 291.181 235.137 287.512C238.038 283.843 239.489 279.235 239.489 273.688C239.489 268.141 237.953 263.491 234.881 259.736C231.809 255.896 227.756 253.976 222.721 253.976C217.857 253.976 213.932 255.853 210.945 259.608C208.044 263.363 206.593 268.056 206.593 273.688C206.593 279.149 208.172 283.757 211.329 287.512C214.486 291.181 218.54 293.016 223.489 293.016ZM268.204 244.248H282.028V255.768C283.393 251.843 285.612 248.685 288.684 246.296C291.756 243.907 295.255 242.712 299.18 242.712C301.911 242.712 303.788 242.968 304.812 243.48L302.892 257.432C302.124 256.92 300.46 256.664 297.9 256.664C293.889 256.664 290.22 257.944 286.892 260.504C283.649 263.064 282.028 267.16 282.028 272.792V303H268.204V244.248ZM303.452 208.92H319.708L347.868 273.56L376.156 208.92H392.284L348.892 303H346.972L303.452 208.92Z" fill="white"/>
<path d="M128.352 300.568L126.353 304.033L126.392 304.055L126.432 304.077L128.352 300.568ZM117.6 289.816L114.115 291.78L114.137 291.818L114.159 291.855L117.6 289.816ZM121.44 251.16L124.357 253.897L124.367 253.886L124.378 253.875L121.44 251.16ZM156.128 246.424L154.06 249.848L154.086 249.864L154.113 249.879L156.128 246.424ZM164.448 255.128L160.767 256.693L168.44 254.872L164.448 255.128ZM163.808 245.144H159.808V245.272L159.816 245.4L163.808 245.144ZM163.808 208.92V204.92H159.808V208.92H163.808ZM177.376 208.92H181.376V204.92H177.376V208.92ZM177.376 303V307H181.376V303H177.376ZM164.192 303L160.193 303.099L160.29 307H164.192V303ZM163.936 292.632L167.935 292.533L160.319 290.924L163.936 292.632ZM156 300.824L158.058 304.254L158.086 304.237L158.113 304.22L156 300.824ZM157.664 287.64L160.492 290.468L160.51 290.451L160.528 290.432L157.664 287.64ZM160.352 263.576L156.817 265.448L160.352 263.576ZM154.08 256.792L156.17 253.382L154.08 256.792ZM132.704 259.736L135.746 262.333L135.762 262.315L135.777 262.297L132.704 259.736ZM132.576 287.384L129.467 289.901L129.5 289.941L129.534 289.981L132.576 287.384ZM143.072 300.28C138.434 300.28 134.19 299.203 130.272 297.059L126.432 304.077C131.559 306.883 137.129 308.28 143.072 308.28V300.28ZM130.351 297.103C126.536 294.903 123.438 291.822 121.041 287.777L114.159 291.855C117.223 297.026 121.293 301.113 126.353 304.033L130.351 297.103ZM121.085 287.852C118.827 283.846 117.632 279.082 117.632 273.432H109.632C109.632 280.241 111.083 286.399 114.115 291.78L121.085 287.852ZM117.632 273.432C117.632 264.909 119.995 258.545 124.357 253.897L118.523 248.423C112.474 254.868 109.632 263.352 109.632 273.432H117.632ZM124.378 253.875C128.704 249.193 134.609 246.712 142.56 246.712V238.712C132.762 238.712 124.586 241.863 118.502 248.445L124.378 253.875ZM142.56 246.712C146.806 246.712 150.61 247.763 154.06 249.848L158.196 243C153.454 240.135 148.212 238.712 142.56 238.712V246.712ZM154.113 249.879C157.673 251.956 159.737 254.269 160.767 256.693L168.129 253.563C166.258 249.16 162.775 245.671 158.143 242.969L154.113 249.879ZM168.44 254.872L167.8 244.888L159.816 245.4L160.456 255.384L168.44 254.872ZM167.808 245.144V208.92H159.808V245.144H167.808ZM163.808 212.92H177.376V204.92H163.808V212.92ZM173.376 208.92V303H181.376V208.92H173.376ZM177.376 299H164.192V307H177.376V299ZM168.191 302.901L167.935 292.533L159.937 292.731L160.193 303.099L168.191 302.901ZM160.319 290.924C159.289 293.105 157.285 295.313 153.887 297.428L158.113 304.22C162.395 301.556 165.682 298.303 167.553 294.34L160.319 290.924ZM153.942 297.394C150.766 299.3 147.176 300.28 143.072 300.28V308.28C148.525 308.28 153.554 306.956 158.058 304.254L153.942 297.394ZM145.376 296.632C151.261 296.632 156.387 294.574 160.492 290.468L154.836 284.812C152.285 287.362 149.219 288.632 145.376 288.632V296.632ZM160.528 290.432C164.692 286.162 166.656 280.668 166.656 274.328H158.656C158.656 278.91 157.292 282.291 154.8 284.848L160.528 290.432ZM166.656 274.328V273.432H158.656V274.328H166.656ZM166.656 273.432C166.656 269.188 165.763 265.248 163.887 261.704L156.817 265.448C158.013 267.707 158.656 270.337 158.656 273.432H166.656ZM163.887 261.704C162.036 258.208 159.462 255.399 156.17 253.382L151.99 260.202C153.988 261.427 155.596 263.141 156.817 265.448L163.887 261.704ZM156.17 253.382C152.884 251.368 149.257 250.36 145.376 250.36V258.36C147.809 258.36 149.985 258.974 151.99 260.202L156.17 253.382ZM145.376 250.36C138.953 250.36 133.511 252.519 129.631 257.175L135.777 262.297C137.87 259.785 140.877 258.36 145.376 258.36V250.36ZM129.662 257.139C125.927 261.514 124.224 267.07 124.224 273.432H132.224C132.224 268.53 133.508 264.955 135.746 262.333L129.662 257.139ZM124.224 273.432C124.224 279.84 125.862 285.447 129.467 289.901L135.685 284.867C133.488 282.153 132.224 278.459 132.224 273.432H124.224ZM129.534 289.981C133.437 294.553 138.923 296.632 145.376 296.632V288.632C140.736 288.632 137.689 287.212 135.618 284.787L129.534 289.981ZM206.977 300.184L208.989 296.727L206.977 300.184ZM196.097 289.048L192.585 290.963L196.097 289.048ZM195.969 257.944L192.457 256.029L192.444 256.053L192.431 256.078L195.969 257.944ZM206.849 246.808L204.837 243.351L206.849 246.808ZM239.233 246.808L237.194 250.249L237.208 250.257L237.221 250.265L239.233 246.808ZM249.985 257.944L246.447 259.81L246.46 259.835L246.473 259.859L249.985 257.944ZM249.985 289.048L246.473 287.133L249.985 289.048ZM239.105 300.184L237.093 296.727L237.08 296.735L237.066 296.743L239.105 300.184ZM235.137 287.512L231.999 285.031L231.981 285.054L231.964 285.077L235.137 287.512ZM234.881 259.736L231.758 262.235L231.771 262.252L231.785 262.269L234.881 259.736ZM210.945 259.608L207.815 257.118L207.797 257.14L207.78 257.162L210.945 259.608ZM211.329 287.512L208.268 290.086L208.282 290.104L208.297 290.121L211.329 287.512ZM223.105 300.28C217.669 300.28 213.003 299.062 208.989 296.727L204.965 303.641C210.338 306.767 216.423 308.28 223.105 308.28V300.28ZM208.989 296.727C204.916 294.357 201.813 291.174 199.609 287.133L192.585 290.963C195.501 296.309 199.651 300.549 204.965 303.641L208.989 296.727ZM199.609 287.133C197.391 283.067 196.257 278.528 196.257 273.432H188.257C188.257 279.771 189.683 285.642 192.585 290.963L199.609 287.133ZM196.257 273.432C196.257 268.409 197.354 263.893 199.507 259.81L192.431 256.078C189.634 261.382 188.257 267.191 188.257 273.432H196.257ZM199.481 259.859C201.685 255.818 204.788 252.635 208.861 250.265L204.837 243.351C199.523 246.443 195.373 250.683 192.457 256.029L199.481 259.859ZM208.861 250.265C212.866 247.935 217.573 246.712 223.105 246.712V238.712C216.349 238.712 210.219 240.22 204.837 243.351L208.861 250.265ZM223.105 246.712C228.639 246.712 233.289 247.935 237.194 250.249L241.272 243.367C235.961 240.219 229.859 238.712 223.105 238.712V246.712ZM237.221 250.265C241.283 252.628 244.33 255.796 246.447 259.81L253.523 256.078C250.69 250.706 246.57 246.449 241.245 243.351L237.221 250.265ZM246.473 259.859C248.696 263.934 249.825 268.432 249.825 273.432H257.825C257.825 267.168 256.394 261.341 253.497 256.029L246.473 259.859ZM249.825 273.432C249.825 278.528 248.691 283.067 246.473 287.133L253.497 290.963C256.399 285.642 257.825 279.771 257.825 273.432H249.825ZM246.473 287.133C244.269 291.174 241.166 294.357 237.093 296.727L241.117 303.641C246.431 300.549 250.581 296.309 253.497 290.963L246.473 287.133ZM237.066 296.743C233.153 299.062 228.542 300.28 223.105 300.28V308.28C229.785 308.28 235.841 306.768 241.144 303.625L237.066 296.743ZM223.489 297.016C229.581 297.016 234.678 294.68 238.31 289.947L231.964 285.077C229.964 287.682 227.296 289.016 223.489 289.016V297.016ZM238.275 289.993C241.834 285.492 243.489 279.961 243.489 273.688H235.489C235.489 278.508 234.243 282.193 231.999 285.031L238.275 289.993ZM243.489 273.688C243.489 267.358 241.716 261.773 237.977 257.203L231.785 262.269C234.19 265.208 235.489 268.925 235.489 273.688H243.489ZM238.004 257.237C234.153 252.422 228.937 249.976 222.721 249.976V257.976C226.574 257.976 229.465 259.37 231.758 262.235L238.004 257.237ZM222.721 249.976C216.658 249.976 211.572 252.394 207.815 257.118L214.075 262.098C216.291 259.313 219.056 257.976 222.721 257.976V249.976ZM207.78 257.162C204.241 261.742 202.593 267.342 202.593 273.688H210.593C210.593 268.77 211.846 264.984 214.11 262.054L207.78 257.162ZM202.593 273.688C202.593 279.977 204.435 285.528 208.268 290.086L214.39 284.938C211.909 281.986 210.593 278.321 210.593 273.688H202.593ZM208.297 290.121C212.234 294.696 217.405 297.016 223.489 297.016V289.016C219.675 289.016 216.739 287.667 214.361 284.903L208.297 290.121ZM268.204 244.248V240.248H264.204V244.248H268.204ZM282.028 244.248H286.028V240.248H282.028V244.248ZM282.028 255.768H278.028L285.806 257.082L282.028 255.768ZM288.684 246.296L291.14 249.453L288.684 246.296ZM304.812 243.48L308.775 244.025L309.166 241.185L306.601 239.902L304.812 243.48ZM302.892 257.432L300.673 260.76L305.984 264.301L306.855 257.977L302.892 257.432ZM286.892 260.504L284.453 257.334L284.433 257.349L284.413 257.364L286.892 260.504ZM282.028 303V307H286.028V303H282.028ZM268.204 303H264.204V307H268.204V303ZM268.204 248.248H282.028V240.248H268.204V248.248ZM278.028 244.248V255.768H286.028V244.248H278.028ZM285.806 257.082C286.936 253.834 288.719 251.336 291.14 249.453L286.228 243.139C282.505 246.034 279.851 249.851 278.25 254.454L285.806 257.082ZM291.14 249.453C293.503 247.615 296.136 246.712 299.18 246.712V238.712C294.373 238.712 290.009 240.198 286.228 243.139L291.14 249.453ZM299.18 246.712C300.436 246.712 301.395 246.772 302.096 246.867C302.845 246.97 303.076 247.084 303.023 247.058L306.601 239.902C304.646 238.925 301.897 238.712 299.18 238.712V246.712ZM300.849 242.935L298.929 256.887L306.855 257.977L308.775 244.025L300.849 242.935ZM305.111 254.104C303.992 253.358 302.686 253.058 301.676 252.903C300.568 252.732 299.29 252.664 297.9 252.664V260.664C299.07 260.664 299.904 260.724 300.46 260.809C300.734 260.852 300.885 260.892 300.943 260.91C301.014 260.933 300.888 260.904 300.673 260.76L305.111 254.104ZM297.9 252.664C292.964 252.664 288.445 254.263 284.453 257.334L289.331 263.674C291.995 261.625 294.815 260.664 297.9 260.664V252.664ZM284.413 257.364C279.891 260.935 278.028 266.41 278.028 272.792H286.028C286.028 267.91 287.408 265.193 289.371 263.644L284.413 257.364ZM278.028 272.792V303H286.028V272.792H278.028ZM282.028 299H268.204V307H282.028V299ZM272.204 303V244.248H264.204V303H272.204ZM303.452 208.92V204.92H297.194L299.822 210.599L303.452 208.92ZM319.708 208.92L323.375 207.322L322.329 204.92H319.708V208.92ZM347.868 273.56L344.201 275.158L347.86 283.556L351.532 275.164L347.868 273.56ZM376.156 208.92V204.92H373.54L372.492 207.316L376.156 208.92ZM392.284 208.92L395.916 210.595L398.534 204.92H392.284V208.92ZM348.892 303V307H351.452L352.524 304.675L348.892 303ZM346.972 303L343.342 304.679L344.415 307H346.972V303ZM303.452 212.92H319.708V204.92H303.452V212.92ZM316.041 210.518L344.201 275.158L351.535 271.962L323.375 207.322L316.041 210.518ZM351.532 275.164L379.82 210.524L372.492 207.316L344.204 271.956L351.532 275.164ZM376.156 212.92H392.284V204.92H376.156V212.92ZM388.652 207.245L345.26 301.325L352.524 304.675L395.916 210.595L388.652 207.245ZM348.892 299H346.972V307H348.892V299ZM350.602 301.321L307.082 207.241L299.822 210.599L343.342 304.679L350.602 301.321Z" fill="black" mask="url(#path-2-outside-1_1_2)"/>
</svg>
